<?xml version="1.0" standalone="no"?>
<!DOCTYPE svg PUBLIC "-//W3C//DTD SVG 1.1//EN" "http://www.w3.org/Graphics/SVG/1.1/DTD/svg11.dtd" >
<svg xmlns="http://www.w3.org/2000/svg" xmlns:xlink="http://www.w3.org/1999/xlink" version="1.1">
<metadata></metadata>
<defs>
<font id="psl_kanda_proregular" horiz-adv-x="748" >
<font-face units-per-em="2048" ascent="1638" descent="-410" />
<missing-glyph horiz-adv-x="471" />
<glyph horiz-adv-x="0" />
<glyph unicode="&#xd;" horiz-adv-x="471" />
<glyph unicode=" "  horiz-adv-x="471" />
<glyph unicode="&#x09;" horiz-adv-x="471" />
<glyph unicode="&#xa0;" horiz-adv-x="471" />
<glyph unicode="!" horiz-adv-x="350" d="M141 0v139h68v-139h-68zM143 614v351h66v-351l-16 -366h-33z" />
<glyph unicode="&#x22;" horiz-adv-x="426" d="M109 655v310h51v-310h-51zM266 655v310h51v-310h-51z" />
<glyph unicode="#" horiz-adv-x="752" d="M41 311v45h166q9 65 16 117q3 22 6 43t5 37.5t3 26.5l1 10h-160v45h168l41 297h45l-43 -297h227l43 297h45l-43 -297h150v-45h-156l-33 -234h152v-45h-158l-43 -311h-45l43 311h-227l-43 -311h-45q12 86 22 155q4 29 8 57t7 50t4.5 35.5l1.5 13.5h-158zM250 356h227 l33 234h-227z" />
<glyph unicode="$" horiz-adv-x="737" d="M16 317h50q0 -74 21.5 -127t59 -87.5t87.5 -52.5t108 -21v448q-62 14 -116.5 30.5t-94.5 44.5t-63 71t-23 110q0 64 22 110.5t62 78t94 47.5t119 18v109h41v-109q83 -3 140.5 -26t94 -62.5t54 -92.5t20.5 -116h-53q1 41 -9 83.5t-38.5 78t-78.5 59.5t-130 27v-418 q67 -15 127.5 -33.5t106 -48.5t72 -75.5t26.5 -114.5q0 -74 -28 -125t-74.5 -82.5t-106 -46.5t-123.5 -17v-118h-41v118q-69 3 -129.5 25.5t-105.5 64.5t-69.5 104t-21.5 146zM96 733q0 -50 14.5 -83.5t44.5 -56t76.5 -37.5t110.5 -28v410q-48 -2 -92.5 -14t-78.5 -36 t-54.5 -62t-20.5 -93zM383 29q52 1 102.5 12t90 36.5t64 68.5t24.5 110q0 54 -24.5 90t-64 59.5t-90 37.5t-102.5 26v-440z" />
<glyph unicode="%" horiz-adv-x="1051" d="M53 705q0 48 15.5 92t45 77.5t72 53.5t95.5 20q54 0 96 -18t70 -49.5t42.5 -73t14.5 -88.5q0 -51 -16.5 -97t-46.5 -81t-71.5 -55.5t-90.5 -20.5q-48 0 -89 19.5t-71.5 52.5t-48 76.5t-17.5 91.5zM102 705q0 -38 13 -73t36.5 -61.5t55 -42.5t69.5 -16q39 0 71.5 16.5 t55.5 44.5t35.5 65t12.5 77q0 37 -12.5 71.5t-35 60t-54 41t-68.5 15.5q-40 0 -73 -16t-56.5 -43t-36.5 -63t-13 -76zM186 -33l627 998h53l-624 -998h-56zM547 221q0 48 15.5 92.5t45 78t71.5 53.5t95 20q55 0 96.5 -18.5t69.5 -49.5t42.5 -73t14.5 -88q0 -51 -16.5 -97 t-46.5 -81t-71.5 -55.5t-90.5 -20.5q-48 0 -89 19.5t-71 52.5t-47.5 76t-17.5 91zM596 221q0 -38 13 -72.5t36.5 -61t55 -42.5t69.5 -16q39 0 71 16.5t55 44.5t35.5 64.5t12.5 76.5q0 38 -12.5 72t-35 60t-54 41.5t-68.5 15.5q-40 0 -72.5 -16t-56 -43.5t-36.5 -63.5 t-13 -76z" />
<glyph unicode="&#x26;" horiz-adv-x="801" d="M59 219q0 48 12 87.5t41 75.5t77 71.5t120 76.5q-12 17 -34.5 44t-44.5 60.5t-38 72t-16 79.5q0 34 17 63.5t45.5 51.5t65.5 34.5t77 12.5q43 0 80 -10.5t64.5 -32.5t43 -56t15.5 -81q0 -42 -18 -77.5t-46.5 -65.5t-64.5 -56t-72 -51l231 -285q31 74 31 162h53 q-5 -55 -18 -106t-33 -94l158 -195h-70l-117 143q-48 -74 -118 -116.5t-154 -42.5q-65 0 -118 16.5t-90.5 47.5t-58 74t-20.5 97zM109 219q0 -44 20.5 -79t53.5 -60t75 -38t86 -13q72 0 137 40.5t107 112.5l-250 312q-49 -32 -91 -57.5t-72.5 -54.5t-48 -67.5t-17.5 -95.5z M229 780q0 -18 5.5 -37t14 -38t19.5 -37.5t23 -34.5q27 -38 63 -74q49 28 89 61q16 14 32 31t29 36.5t20.5 41t7.5 45.5q0 29 -12.5 53t-33.5 41.5t-48.5 27t-56.5 9.5t-56 -9t-48.5 -25t-34.5 -39.5t-13 -51.5z" />
<glyph unicode="'" horiz-adv-x="276" d="M113 655v310h51v-310h-51z" />
<glyph unicode="(" horiz-adv-x="365" d="M92 401q0 108 14.5 197t40.5 164.5t62 140t78 123.5h51q-54 -83 -91 -154.5t-59.5 -143.5t-32.5 -152t-10 -179q0 -168 47 -317.5t146 -288.5l-53 4q-88 116 -140.5 267t-52.5 339z" />
<glyph unicode=")" horiz-adv-x="365" d="M27 -209q99 139 145.5 288.5t46.5 317.5q0 99 -9.5 179t-32 152t-59.5 143.5t-91 154.5h51q42 -59 77.5 -123.5t61.5 -140t40.5 -164.5t14.5 -197q0 -188 -52 -339t-140 -267z" />
<glyph unicode="*" horiz-adv-x="487" d="M41 807l14 41l164 -53v172h47v-172l162 53l16 -41l-159 -57l94 -136l-31 -30l-104 137l-109 -137l-35 30l105 136z" />
<glyph unicode="+" d="M61 315v52h287v284h51v-284h287v-52h-287v-288h-51v288h-287z" />
<glyph unicode="," horiz-adv-x="289" d="M78 49q0 25 18.5 45.5t46.5 20.5q38 0 58 -25t20 -63q0 -20 -6 -42t-18.5 -44.5t-31.5 -43.5t-46 -38l-31 20q17 11 32 26t26.5 31.5t18.5 33t9 28.5q-15 -8 -21 -8h-16q-23 0 -41 17t-18 42z" />
<glyph unicode="-" horiz-adv-x="475" d="M94 342v51h289v-51h-289z" />
<glyph unicode="." horiz-adv-x="289" d="M82 51q0 26 17.5 45t43.5 19t45 -19t19 -45t-19 -43.5t-45 -17.5t-43.5 17.5t-17.5 43.5z" />
<glyph unicode="/" horiz-adv-x="451" d="M-18 -23l430 1010h55l-430 -1010h-55z" />
<glyph unicode="0" d="M35 479q0 90 17.5 174.5t57.5 150t104.5 105t158.5 39.5q65 0 115.5 -19.5t88 -52.5t63 -76.5t41.5 -93t23 -101.5t7 -101q0 -109 -16.5 -204t-55.5 -165t-104 -110.5t-162 -40.5q-68 0 -119.5 20.5t-89 56t-62.5 83t-40 102.5t-21 114.5t-6 118.5zM88 477 q0 -95 15.5 -177t49.5 -142t88 -94.5t132 -34.5q60 0 104.5 20t76 54.5t52 80.5t32.5 98.5t16.5 109t4.5 110.5q0 72 -15.5 144t-49.5 129.5t-88.5 93.5t-132.5 36q-82 0 -137 -38.5t-88 -100t-46.5 -138t-13.5 -151.5z" />
<glyph unicode="1" d="M164 758v39q69 0 114.5 5.5t72 19.5t37.5 38t11 62v10h45v-932h-51v758h-229z" />
<glyph unicode="2" d="M61 0q-3 71 26 126t78 101.5t113 88.5t130 87q46 32 84.5 64t66 67.5t42.5 77t15 93.5q0 43 -18.5 79.5t-50 63.5t-72.5 42t-86 15q-63 0 -107 -18t-73.5 -46t-45.5 -62t-23.5 -66t-7.5 -58t3 -37h-51q-5 24 -4 57.5t11.5 70t32 73t57 65t86 46.5t120.5 18 q64 0 115.5 -18t88.5 -50.5t57 -78.5t20 -101q0 -59 -15.5 -104.5t-43.5 -83t-65.5 -69.5t-82.5 -64q-56 -40 -115 -79.5t-108.5 -80t-81 -82t-31.5 -86.5h557v-51h-621z" />
<glyph unicode="3" d="M45 307h51q0 -74 21 -127t58.5 -86.5t89.5 -49t114 -15.5q51 0 98 16.5t83 46.5t57.5 71.5t21.5 92.5q0 107 -77 165t-240 52v45q142 -8 217 46t75 157q0 43 -19.5 77t-52 58t-73.5 36.5t-84 12.5q-66 0 -117.5 -21t-86 -57t-51.5 -84.5t-15 -103.5h-47q-2 64 17.5 120.5 t59.5 98.5t100 66t140 24q58 0 109 -16.5t89 -47t60.5 -73.5t22.5 -96q0 -42 -13.5 -78.5t-37.5 -65t-57.5 -47.5t-74.5 -26q44 -5 81.5 -24.5t65 -51.5t43 -74t15.5 -92q0 -60 -23 -110t-64 -86t-98 -56t-124 -20q-68 0 -129 14.5t-106.5 51t-72 99t-26.5 158.5z" />
<glyph unicode="4" d="M37 238v51l455 643h51v-649h157v-45h-157v-238h-51v238h-455zM88 283h404v579z" />
<glyph unicode="5" d="M49 285h49q-1 -62 20.5 -110t58.5 -80.5t86 -49t104 -16.5q56 0 104.5 22t84.5 59.5t56.5 87t20.5 105.5q0 58 -20 108.5t-54.5 88.5t-81 60t-98.5 22q-49 0 -85 -9t-64.5 -26t-53 -41.5t-49.5 -54.5h-51l96 481h471v-49h-432l-76 -369q25 31 51.5 52.5t56 35t63.5 19.5 t75 6q63 0 118 -24t96.5 -67t65 -102t23.5 -129q0 -71 -24.5 -129.5t-67 -101.5t-100 -66.5t-123.5 -23.5q-65 0 -125 20t-105.5 58.5t-70.5 94.5t-19 128z" />
<glyph unicode="6" d="M53.5 446q0.5 49 7 106.5t21.5 119.5q34 134 116 205t199 71q69 0 120 -20t86 -53.5t55 -78.5t26 -94h-49q-8 38 -25 74.5t-45.5 65t-70 46t-97.5 17.5q-62 0 -107.5 -22.5t-78.5 -60.5t-53.5 -87.5t-32 -104t-15 -110t-1.5 -104.5q35 97 110 148.5t178 51.5 q64 0 119.5 -24t96.5 -67t64 -103t23 -131q0 -65 -23 -121t-65 -97t-101 -65t-130 -24q-140 0 -216.5 80t-101.5 233q-4 24 -7 62t-2.5 87zM123 297q0 -51 18.5 -99.5t53 -86t83 -60t107.5 -22.5q54 0 102 21t84 57t57 83.5t21 100.5q0 56 -20 106.5t-55 89t-83.5 61.5 t-105.5 23q-54 0 -101.5 -21t-83 -57.5t-56.5 -87t-21 -108.5z" />
<glyph unicode="7" d="M74 883v49h602v-53q-44 -44 -90 -100q-39 -48 -86 -115.5t-90 -149.5q-23 -43 -40.5 -87.5t-31.5 -88.5t-24 -86.5t-17 -79.5q-17 -88 -23 -172h-59q3 81 21 170q14 76 44.5 171.5t84.5 195.5q35 64 79 126t84 111q47 57 95 109h-549z" />
<glyph unicode="8" d="M51 254q0 60 16.5 105.5t45 77t66.5 49t81 22.5q-78 18 -126 68.5t-48 142.5q0 54 21 96.5t59.5 72.5t91 46t115.5 16q60 0 112.5 -14t91.5 -41.5t62 -68t23 -93.5q0 -51 -12 -88.5t-34.5 -64t-54.5 -43.5t-72 -27q46 -6 84 -25.5t65.5 -51.5t42.5 -75t15 -96 q0 -62 -22.5 -113t-64 -87.5t-100.5 -57t-132 -20.5q-65 0 -124 16t-104 49t-71.5 84t-26.5 121zM102 260q0 -48 17.5 -90t52 -73.5t85 -49.5t116.5 -18t116.5 18t85 49.5t52.5 73t18 88.5q0 48 -14.5 89t-46.5 72t-84 48.5t-127 17.5q-72 0 -123 -17.5t-84 -48t-48.5 -71.5 t-15.5 -88zM135 721q0 -40 16 -75t46 -60.5t74 -40.5t100 -15q60 0 105 15t75 40.5t45.5 60.5t15.5 75q0 39 -15.5 72.5t-46 58.5t-75 39t-102.5 14q-59 0 -103.5 -14t-74.5 -39t-45 -58.5t-15 -72.5z" />
<glyph unicode="9" d="M59 637q1 64 23 121t63 99t99.5 66.5t130.5 24.5q74 0 127 -20.5t89.5 -56.5t58.5 -84t33 -103t14 -114t1 -117q-2 -57 -9.5 -113.5t-24 -108.5t-42 -97t-62.5 -78.5t-86 -52.5t-112 -19q-60 0 -111 17.5t-89.5 49.5t-62 77t-27.5 101h53q4 -43 24 -79.5t50.5 -63.5 t69 -42t81.5 -15q61 0 107 20t79.5 54.5t55.5 81t34.5 99.5t17.5 110.5t5 113.5q-35 -91 -105 -142t-169 -51q-72 0 -131 25.5t-100 69.5t-63.5 102.5t-21.5 124.5zM111 635q0 -57 20.5 -107t56.5 -87.5t84 -59t103 -21.5t103 21.5t84 59t56.5 87.5t20.5 107t-20.5 106.5 t-56.5 86t-84 58t-103 21.5t-103 -21.5t-84 -58t-56.5 -86t-20.5 -106.5z" />
<glyph unicode=":" horiz-adv-x="289" d="M82 51q0 26 17.5 45t43.5 19t45 -19t19 -45t-19 -43.5t-45 -17.5t-43.5 17.5t-17.5 43.5zM82 598q0 26 17.5 45t43.5 19t45 -19t19 -45t-19 -43.5t-45 -17.5t-43.5 17.5t-17.5 43.5z" />
<glyph unicode=";" horiz-adv-x="289" d="M78 49q0 25 18.5 45.5t46.5 20.5q38 0 58 -25t20 -63q0 -20 -6 -42t-18.5 -44.5t-31.5 -43.5t-46 -38l-31 20q17 11 32 26t26.5 31.5t18.5 33t9 28.5q-15 -8 -21 -8h-16q-23 0 -41 17t-18 42zM82 598q0 26 17.5 45t43.5 19t45 -19t19 -45t-19 -43.5t-45 -17.5t-43.5 17.5 t-17.5 43.5z" />
<glyph unicode="&#x3c;" horiz-adv-x="811" d="M61 307v72l689 315v-55l-644 -295l644 -299v-55z" />
<glyph unicode="=" d="M61 184v52h625v-52h-625zM61 446v52h625v-52h-625z" />
<glyph unicode="&#x3e;" horiz-adv-x="811" d="M61 -10v55l644 295l-644 299v55l689 -319v-70z" />
<glyph unicode="?" horiz-adv-x="686" d="M57 666q-8 73 8.5 132t55 101t95.5 65t130 23q58 0 109 -16.5t88 -47.5t58.5 -75.5t21.5 -99.5q0 -60 -18.5 -101.5t-46.5 -73.5t-61 -57.5t-61 -52.5t-46.5 -60t-18.5 -79v-80h-52v82q0 50 18.5 86.5t46.5 65.5t61 55t61 56t46.5 68t18.5 91q0 43 -16.5 78t-46.5 60.5 t-71.5 39.5t-92.5 14q-72 0 -120.5 -23.5t-76.5 -62t-37 -88t-1 -100.5h-52zM281 55q0 28 18.5 48t46.5 20t47 -19t19 -47q0 -14 -5.5 -26.5t-14.5 -21.5t-21.5 -14.5t-26.5 -4.5q-26 2 -44.5 20.5t-18.5 44.5z" />
<glyph unicode="@" horiz-adv-x="1094" d="M61 502q4 102 46.5 190.5t111 154t157 103t185.5 37.5q94 0 171 -24.5t135.5 -67t97 -99.5t56 -121.5t13 -133t-32.5 -133.5q-21 -50 -52 -92.5t-67.5 -73t-76.5 -47.5t-80 -17q-21 0 -37.5 8t-27.5 21t-16.5 30.5t-6.5 36.5q-18 -22 -35.5 -39.5t-39.5 -29.5 t-50.5 -18.5t-69.5 -6.5q-38 0 -73 22t-58 63.5t-29 100.5t15 134q16 58 44 109.5t67 90.5t88.5 61.5t109.5 22.5q35 0 60.5 -13t43 -31.5t27.5 -40.5t15 -40l32 99h56l-142 -439q-12 -38 -3.5 -59t27.5 -28.5t42 -3.5t41 16q87 57 133.5 145.5t46.5 194.5q0 81 -38.5 147.5 t-99.5 114t-137 73t-151 25.5q-55 0 -109 -16t-103.5 -45t-91.5 -69.5t-73.5 -89.5t-50 -106t-20.5 -118q-3 -95 30.5 -181.5t94 -152t142.5 -104.5t175 -39q67 0 126.5 17t108.5 45.5t86.5 65t61.5 76.5h59q-25 -51 -67 -96t-98 -79.5t-126.5 -54.5t-152.5 -20 q-110 0 -201.5 42.5t-157 114.5t-100.5 167.5t-31 200.5zM333.5 395.5q0.5 -53.5 16 -91.5t42.5 -58.5t57 -20.5q38 0 70 11t60 37t54 68t53 105q23 54 26 106.5t-9 94t-37 67t-58 25.5q-12 0 -30.5 -1.5t-40.5 -8t-46 -20.5t-48 -39t-46.5 -62.5t-40.5 -91.5 q-23 -67 -22.5 -120.5z" />
<glyph unicode="A" horiz-adv-x="793" d="M-16 0l378 965h66l375 -965h-62l-118 309h-457l-121 -309h-61zM184 360h420l-207 549z" />
<glyph unicode="B" horiz-adv-x="836" d="M84 0v965h356q70 0 125.5 -12t96 -39t65 -71t33.5 -108q1 -10 1 -21q0 -26 -7 -52q-10 -37 -33.5 -69t-61 -55t-86.5 -30q50 -6 91 -26.5t69.5 -52t44 -72.5t15.5 -87q0 -71 -28 -122t-71.5 -84t-96.5 -48.5t-103 -15.5h-410zM143 51h320q60 0 110 13.5t86 41t56 68.5 t20 96q0 100 -71 152.5t-201 52.5h-320v-424zM143 526h326q45 0 87 11.5t74.5 35.5t52 61.5t19.5 90.5q0 51 -19.5 87t-52 58.5t-74 32.5t-85.5 10h-328v-387z" />
<glyph unicode="C" horiz-adv-x="934" d="M47 487v6q0 103 32 193q33 92 93 158.5t142.5 104.5t181.5 38q77 0 134.5 -19t99 -48t69 -65t45 -70.5t26 -63t11.5 -43.5h-58q-11 56 -38 103t-68.5 81.5t-97.5 54t-125 19.5q-89 0 -161 -36t-122.5 -97t-77.5 -142t-27 -172q0 -88 24.5 -171t74 -147t122.5 -103 t171 -39q53 0 98 16t82 43t65.5 62.5t48.5 74t31 77.5t13 73h59q-3 -35 -14 -78t-32 -87t-53 -86t-76.5 -74.5t-102 -52.5t-130.5 -20q-106 0 -187.5 42.5t-137.5 113t-85 162.5t-30 192z" />
<glyph unicode="D" horiz-adv-x="883" d="M84 -2v967h317q91 0 167.5 -26.5t133.5 -81t90.5 -138.5t38.5 -199q1 -19 0 -37q-1 -99 -23 -181q-28 -96 -85 -164t-144.5 -104t-203.5 -36h-291zM143 51h256q97 0 170 35.5t120 98.5t68 149q16 67 16 144q0 22 -1 44q-7 110 -37.5 185t-81.5 120.5t-120.5 65.5 t-153.5 20h-236v-862z" />
<glyph unicode="E" horiz-adv-x="743" d="M84 0v965h635v-52h-576v-387h541v-51h-541v-424h584v-51h-643z" />
<glyph unicode="F" horiz-adv-x="680" d="M84 0v965h592v-52h-533v-387h482v-51h-482v-475h-59z" />
<glyph unicode="G" horiz-adv-x="981" d="M49 471q0 98 28.5 191t85 165t140 116t193.5 44q66 0 118.5 -14t92.5 -36.5t69 -51.5t49 -59q48 -70 64 -160h-55q-15 66 -47.5 116.5t-79 84.5t-104.5 51.5t-124 17.5q-90 0 -159.5 -40t-117.5 -105.5t-73 -149t-25 -170.5q0 -96 28.5 -177t80 -140t124 -92t161.5 -33 q79 0 144.5 24t112 72.5t72.5 122.5t27 174h-348v51h399v-473h-51v203q-51 -113 -141.5 -169.5t-218.5 -56.5q-104 0 -186.5 38t-140 104.5t-88 157t-30.5 194.5z" />
<glyph unicode="H" horiz-adv-x="887" d="M84 0v965h59v-439h605v439h57v-965h-57v475h-605v-475h-59z" />
<glyph unicode="I" horiz-adv-x="225" d="M84 0v965h59v-965h-59z" />
<glyph unicode="J" horiz-adv-x="637" d="M29 307h55v-17q0 -52 5 -96q6 -52 27.5 -88.5t63 -56.5t111.5 -20q112 0 158.5 56t46.5 175v705h57v-705q0 -68 -15 -120.5t-46.5 -89.5t-82 -56t-120.5 -19q-75 0 -127.5 25t-83.5 69.5t-43 105.5q-8 41 -8 86q0 22 2 46z" />
<glyph unicode="K" horiz-adv-x="813" d="M84 0v965h59v-555l596 555h76l-434 -404l461 -561h-76l-426 522l-197 -184v-340z" />
<glyph unicode="L" horiz-adv-x="662" d="M84 0v965h59v-914h535v-51h-594z" />
<glyph unicode="M" horiz-adv-x="1071" d="M84 0v965h82l373 -902l366 902h82v-965h-57v895l-365 -895h-57l-365 893v-893h-59z" />
<glyph unicode="N" horiz-adv-x="897" d="M84 0v965h72l600 -885v885h59v-965h-67l-605 893v-893h-59z" />
<glyph unicode="O" horiz-adv-x="981" d="M41 487q0 105 31 196t89 158.5t142 106.5t189 39q97 0 179.5 -36.5t142.5 -100.5t94 -152.5t34 -191.5q0 -105 -27 -201t-82.5 -169.5t-141 -117t-202.5 -43.5q-109 0 -192.5 42.5t-140.5 113.5t-86 163.5t-29 192.5zM100 487q0 -93 25.5 -176.5t75 -146.5t121.5 -100 t165 -37q99 0 174.5 41t126.5 108t75 153q21 74 21 151q0 13 -1 26q-4 84 -31.5 162t-77 137.5t-120.5 95t-162 35.5q-96 0 -169.5 -37.5t-123 -99.5t-74.5 -143t-25 -169z" />
<glyph unicode="P" horiz-adv-x="782" d="M84 0v965h405q72 0 123.5 -20.5t84.5 -56.5t48 -84.5t15 -103.5q0 -127 -76.5 -198.5t-222.5 -71.5h-318v-430h-59zM143 481h322q59 0 103.5 16t74 44.5t44.5 68t15 86.5q0 46 -13 85.5t-40.5 69t-72 46t-107.5 16.5h-326v-432z" />
<glyph unicode="Q" horiz-adv-x="981" d="M41 487q0 105 31 196t89 158.5t142 106.5t189 39q97 0 179.5 -36.5t142.5 -100.5t94 -152.5t34 -191.5q0 -119 -34.5 -224.5t-106.5 -181.5l145 -108l-33 -39l-155 106q-53 -40 -120 -62t-149 -22q-109 0 -192.5 42.5t-140.5 113.5t-86 163.5t-29 192.5zM100 487 q0 -93 25.5 -176.5t75 -146.5t121.5 -100t165 -37q66 0 121.5 18.5t102.5 52.5l-142 105l31 41l152 -109q69 69 102 167q30 85 30 177q0 13 -1 27q-4 84 -31.5 162t-77 137.5t-120.5 95t-162 35.5q-96 0 -169.5 -37.5t-123 -99.5t-74.5 -143t-25 -169z" />
<glyph unicode="R" horiz-adv-x="836" d="M84 0v965h410q64 0 116 -15.5t89 -45.5t57 -74.5t20 -102.5q0 -108 -53 -174.5t-152 -85.5q59 -6 96.5 -28t58.5 -59t28.5 -89t7.5 -117v-47q0 -37 4.5 -61.5t10.5 -38.5q7 -18 16 -27h-64q-8 10 -14 27q-5 14 -9 37.5t-4 56.5v121q0 55 -16 92.5t-45.5 60.5t-71 33 t-92.5 10h-334v-438h-59zM143 492h324q48 0 93.5 11t81 35.5t56.5 65.5t21 101q0 58 -19 98t-54.5 64.5t-85 35t-109.5 10.5h-308v-421z" />
<glyph unicode="S" horiz-adv-x="836" d="M51 319h60q-1 -11 -1 -22q0 -55 17 -99q20 -54 60.5 -91t101 -57.5t137.5 -20.5q54 0 108 10.5t97 36.5t69.5 69.5t26.5 108.5q0 56 -27.5 93t-74.5 61.5t-109.5 40t-132.5 28.5q-76 15 -133 34.5t-94.5 51t-56.5 77.5t-19 112q0 57 28.5 101t74.5 74t104 45t116 15 q81 0 139 -17.5t97 -45.5t63 -62t36 -67t16 -61.5t4 -43.5h-56q-4 51 -23 96t-55.5 78.5t-91 52.5t-129.5 19q-47 0 -94 -11t-84.5 -34t-61.5 -57.5t-24 -81.5q0 -63 21 -101.5t56 -61.5t81 -35.5t96 -23.5q95 -20 168 -39.5t122 -50.5t74 -78.5t25 -123.5q0 -63 -27 -111.5 t-75 -82t-113 -50.5t-141 -17q-108 0 -180 30.5t-115.5 79.5t-61.5 110t-18 122z" />
<glyph unicode="T" horiz-adv-x="688" d="M-18 913v52h725v-52h-336v-913h-58v913h-331z" />
<glyph unicode="U" horiz-adv-x="891" d="M84 381v584h59v-584q0 -174 75.5 -264t221.5 -90q84 0 143 26t96 73t54 112t17 143v584h57v-584q0 -94 -22 -169t-67 -127.5t-114.5 -81t-163.5 -28.5q-95 0 -162 29t-110.5 82t-63.5 128t-20 167z" />
<glyph unicode="V" horiz-adv-x="737" d="M-18 965h61l326 -916l325 916h58l-351 -965h-67z" />
<glyph unicode="W" horiz-adv-x="1178" d="M-8 965h61l246 -904l252 904h74l256 -902l243 902h62l-273 -965h-65l-262 920l-254 -920h-68z" />
<glyph unicode="X" horiz-adv-x="737" d="M-23 0l357 498l-332 467h68l297 -420l305 420h69l-333 -467l352 -498h-72l-321 453l-320 -453h-70z" />
<glyph unicode="Y" horiz-adv-x="760" d="M-29 965h68l340 -508l344 508h65l-380 -562v-403h-58v403z" />
<glyph unicode="Z" horiz-adv-x="711" d="M-2 0v49l639 864h-600v52h663v-52l-643 -862h656v-51h-715z" />
<glyph unicode="[" horiz-adv-x="326" d="M127 -207v1233h184v-43h-133v-1147h133v-43h-184z" />
<glyph unicode="\" horiz-adv-x="451" d="M-18 987h55l430 -1010h-55z" />
<glyph unicode="]" horiz-adv-x="326" d="M14 -164h133v1147h-133v43h185v-1233h-185v43z" />
<glyph unicode="^" horiz-adv-x="811" d="M53 319l318 613h71l316 -613h-56l-294 570l-299 -570h-56z" />
<glyph unicode="_" d="M0 -100h748v-52h-748v52z" />
<glyph unicode="`" horiz-adv-x="225" d="M-41 987h70l161 -188h-49z" />
<glyph unicode="a" horiz-adv-x="662" d="M41 184q0 48 18 83.5t49 60t72.5 38t89.5 17.5q54 4 100.5 8t80.5 13.5t53.5 27.5t19.5 51v43q0 42 -17.5 69t-45.5 42.5t-63 21t-70 5.5q-50 0 -86 -13.5t-60 -37.5t-37.5 -57.5t-17.5 -72.5h-51q2 58 21.5 100.5t52 71t76 42.5t93.5 14q45 0 90.5 -9.5t82 -29.5 t59 -52.5t22.5 -78.5v-428q0 -15 3 -30t12 -25t25 -13t42 6v-43q-17 -8 -39.5 -9t-43 7.5t-34.5 27t-14 48.5v57q-17 -39 -43.5 -68t-60 -47.5t-72 -28t-78.5 -9.5q-44 0 -85 8t-73 29.5t-51.5 60t-19.5 100.5zM90 184q0 -71 49.5 -113t139.5 -42q56 0 101 20t77 54t49.5 79 t17.5 94v121q-11 -17 -40.5 -27t-65.5 -16t-72.5 -9t-60.5 -5q-44 -5 -80 -15t-61.5 -28.5t-39.5 -46t-14 -66.5z" />
<glyph unicode="b" horiz-adv-x="737" d="M86 0v965h51v-418q34 75 99.5 119.5t158.5 44.5q78 0 134.5 -28.5t92.5 -75.5t53 -108.5t17 -127.5q0 -187 -79.5 -287t-223.5 -100q-85 0 -150 45t-102 127v-156h-51zM139 371q0 -72 15.5 -134t47 -108.5t78.5 -73t109 -26.5q73 0 122 31.5t78 80t41.5 106.5t12.5 111 q0 58 -14.5 113.5t-45.5 99t-79 69.5t-115 26q-64 0 -111 -25t-78 -66t-46 -94t-15 -110z" />
<glyph unicode="c" horiz-adv-x="688" d="M45 350q0 69 19 134.5t57 115.5t96.5 80.5t136.5 30.5q71 0 123 -19t86.5 -51.5t52.5 -74.5t21 -87h-49q-5 36 -20 69.5t-43 60t-70.5 42t-100.5 15.5q-60 0 -108 -25.5t-81.5 -69t-52 -100.5t-18.5 -121q0 -72 17.5 -131t50.5 -101.5t81.5 -65.5t110.5 -23 q50 0 91.5 16.5t72.5 45.5t50.5 68.5t25.5 84.5h51q-7 -53 -29.5 -100.5t-59 -83.5t-87.5 -57t-115 -21q-73 0 -130.5 27.5t-97 76t-60.5 116t-21 148.5z" />
<glyph unicode="d" horiz-adv-x="737" d="M45 365q0 72 18 135t54.5 110t92 74t130.5 27q42 0 82 -10.5t74.5 -31t61 -51.5t40.5 -71h2v418h51v-965h-51v156h-2q-4 -14 -19.5 -42.5t-46.5 -57.5t-78 -50.5t-114 -21.5q-24 0 -54.5 5t-63.5 20t-64.5 41t-56.5 68.5t-40.5 103t-15.5 143.5zM94 365q0 -60 13.5 -120 t43 -108t76 -78t113.5 -30q69 0 118 28.5t80 75t45.5 107t14.5 125.5t-15.5 120.5t-47.5 95.5t-80.5 62.5t-114.5 22.5q-61 0 -107 -25.5t-77 -67.5t-46.5 -96.5t-15.5 -111.5z" />
<glyph unicode="e" horiz-adv-x="688" d="M45 340q0 73 18.5 140t56 118.5t94.5 82t134 30.5q62 0 109 -18.5t81 -48.5t56 -69t34 -80.5t16 -81.5q2 -25 2 -48q0 -13 -1 -25h-551q0 -70 17 -127t50 -98t80 -63.5t107 -22.5q55 0 97 18t71.5 47.5t47 66.5t24.5 75h51q-10 -57 -32.5 -103.5t-58.5 -79.5t-86 -51 t-114 -18q-81 0 -138.5 29.5t-94 79t-53.5 113.5t-17 134zM94 385h500q0 42 -14.5 91t-44.5 91t-76.5 70.5t-110.5 28.5q-66 0 -114 -30t-79 -73.5t-46 -92t-15 -85.5z" />
<glyph unicode="f" horiz-adv-x="319" d="M0 649v45h123v148q0 55 32.5 92t100.5 43q13 2 26.5 0.5t24.5 -3.5l25 -5v-47q-22 6 -50 10t-59 -8q-32 -13 -41.5 -35.5t-9.5 -46.5v-148h141v-45h-141v-649h-49v649h-123z" />
<glyph unicode="g" horiz-adv-x="711" d="M45 377q0 70 20.5 131t59 106t92 71t119.5 26q87 0 153 -41t97 -119v143h51v-653q0 -83 -19.5 -141t-57.5 -94.5t-94.5 -53t-129.5 -16.5q-75 0 -124 19t-78 49.5t-41.5 69t-16.5 77.5h53q0 -29 12 -59.5t37.5 -55.5t64.5 -41t93 -16q124 0 187 62.5t63 199.5v145 q-77 -159 -250 -159q-81 0 -136.5 29.5t-90 78.5t-49.5 112t-15 130zM94 377q0 -62 14.5 -117.5t44.5 -97.5t75.5 -67t107.5 -25q57 0 103.5 21t79 61t50 96.5t17.5 128.5q0 56 -15.5 108t-47 92.5t-78.5 64.5t-109 24q-58 0 -103 -25t-76 -65.5t-47 -92.5t-16 -106z" />
<glyph unicode="h" horiz-adv-x="688" d="M74 0v965h51v-418q16 43 44 74t63 51t74.5 29.5t80.5 9.5q103 0 165 -66.5t62 -200.5v-444h-53v430q0 116 -43 176t-137 60q-67 0 -115 -23t-79.5 -62t-46.5 -90t-15 -106v-385h-51z" />
<glyph unicode="i" horiz-adv-x="223" d="M86 0v694h51v-694h-51zM86 825v140h51v-140h-51z" />
<glyph unicode="j" horiz-adv-x="223" d="M-45 -205q29 -2 53 -0.5t41.5 14.5t27 41t9.5 78v766h51v-766q0 -54 -11.5 -90t-34 -56t-57.5 -27q-21 -4 -48 -4q-15 0 -31 1v43zM86 825v140h51v-140h-51z" />
<glyph unicode="k" horiz-adv-x="614" d="M76 0v965h51v-639l422 368h69l-294 -258l317 -436h-68l-288 395l-158 -135v-260h-51z" />
<glyph unicode="l" horiz-adv-x="223" d="M86 0v965h51v-965h-51z" />
<glyph unicode="m" horiz-adv-x="1053" d="M76 0v694h51v-141q12 37 34 66t50.5 49.5t61.5 31.5t67 11q85 0 136.5 -38t74.5 -110q25 68 79 108t138 40q58 0 98.5 -19.5t65.5 -52.5t36 -75.5t11 -88.5v-475h-49v475q0 39 -9.5 74t-29 61t-50.5 41t-73 15q-45 0 -84.5 -16t-69 -47.5t-46.5 -77.5t-17 -107v-418h-49 v465q0 37 -7.5 73.5t-26 64.5t-49.5 45.5t-79 17.5q-49 0 -88.5 -21.5t-67 -55t-42.5 -74t-15 -79.5v-436h-51z" />
<glyph unicode="n" horiz-adv-x="688" d="M74 0v694h51v-147q15 41 42 72t61 51.5t71.5 30.5t73.5 10q67 0 113 -20t74.5 -54.5t41 -82t12.5 -101.5v-453h-53v453q0 41 -9.5 79.5t-31.5 68t-58 47.5t-89 18q-63 0 -109.5 -24.5t-77.5 -63t-46 -86t-15 -93.5v-399h-51z" />
<glyph unicode="o" horiz-adv-x="711" d="M43 356q0 69 20.5 133.5t60 113.5t97.5 78.5t133 29.5q72 0 130 -27t99 -75t63 -113t22 -140q0 -81 -21 -149.5t-61 -118.5t-98.5 -78t-133.5 -28q-71 0 -128 29t-98 79t-63 118.5t-22 147.5zM92 356q0 -61 15.5 -120t48 -105t81.5 -74t117 -28q66 0 115.5 28t82.5 74 t49.5 105t16.5 120q0 59 -17.5 115t-51 99.5t-82.5 69.5t-113 26q-59 0 -107 -25.5t-82.5 -68.5t-53.5 -99t-19 -117z" />
<glyph unicode="p" horiz-adv-x="737" d="M86 -248v942h51v-155q37 81 102 126.5t150 45.5q68 0 124 -23.5t95.5 -71t61.5 -117.5t22 -163q0 -66 -18 -129.5t-55 -113t-94.5 -79.5t-135.5 -30q-42 0 -81.5 9t-73 28.5t-58.5 50.5t-39 75v-395h-51zM137 324q0 -61 14.5 -114.5t45.5 -93.5t78.5 -63.5t113.5 -23.5 q67 0 115 26t79 69t45.5 98t14.5 114q0 53 -12.5 111t-41.5 107t-78 80.5t-122 31.5q-62 0 -109.5 -23t-79 -67t-47.5 -107.5t-16 -144.5z" />
<glyph unicode="q" horiz-adv-x="737" d="M45 336q0 94 21.5 164.5t61.5 117.5t96 70t124 23q85 0 150 -45.5t102 -126.5v155h51v-942h-51v395q-24 -44 -50.5 -75t-57.5 -50.5t-66.5 -28.5t-77.5 -9q-78 0 -135.5 30t-94.5 79.5t-55 113t-18 129.5zM94 336q0 -59 14.5 -114t45.5 -98t79 -69t115 -26q66 0 113.5 28 t78.5 74t45.5 104.5t14.5 118.5q0 59 -16 115.5t-47.5 100t-79 70t-109.5 26.5q-73 0 -121.5 -30t-78 -77.5t-42 -106.5t-12.5 -116z" />
<glyph unicode="r" horiz-adv-x="367" d="M74 0v694h51v-153q18 44 53 78q15 15 35 29t46 25t58 18t72 7v-51q-10 1 -20 1q-51 0 -91 -17q-48 -20 -82.5 -57t-52.5 -87.5t-18 -107.5v-379h-51z" />
<glyph unicode="s" horiz-adv-x="637" d="M49 231h49q0 -35 14 -71t42 -65t68.5 -47.5t94.5 -18.5q40 0 80 7t72 24t52 45.5t20 72.5q0 32 -13 56.5t-41.5 43t-73 32.5t-108.5 26q-42 7 -83.5 19.5t-75 34t-54 53.5t-20.5 79q0 93 64 141t181 48q76 0 125 -20t77 -51.5t39 -71.5t11 -79h-49q0 82 -53 129.5 t-150 47.5q-35 0 -70 -6.5t-62.5 -23t-44.5 -44.5t-17 -70q0 -32 16.5 -54t42.5 -37t58.5 -24.5t64.5 -17.5q61 -15 113 -26.5t90 -32t60 -56t22 -96.5q0 -49 -20 -85.5t-56 -60.5t-86 -36t-111 -12q-68 0 -118.5 21t-83.5 55.5t-49.5 79t-16.5 91.5z" />
<glyph unicode="t" horiz-adv-x="344" d="M0 649v45h127v217h49v-217h150v-45h-150v-495q0 -36 10.5 -58.5t29.5 -34.5t46.5 -15.5t61.5 -0.5v-47q-13 -1 -25 -1q-27 -1 -52 3q-36 4 -62.5 20.5t-42 47t-15.5 79.5v502h-127z" />
<glyph unicode="u" horiz-adv-x="688" d="M74 252v442h51v-442q0 -61 14 -103.5t39 -69t59.5 -38.5t75.5 -12q64 0 111 24.5t77.5 63.5t45 87.5t14.5 96.5v393h53v-694h-53v152q-29 -84 -94.5 -126t-153.5 -42q-121 0 -180 67.5t-59 200.5z" />
<glyph unicode="v" horiz-adv-x="588" d="M-2 694h57l248 -637l234 637h53l-256 -694h-64z" />
<glyph unicode="w" horiz-adv-x="934" d="M-2 694h53l195 -639l186 639h68l188 -639l191 639h57l-219 -694h-64l-186 635l-191 -635h-63z" />
<glyph unicode="x" horiz-adv-x="588" d="M-8 0l266 365l-248 329h70l215 -291l213 291h65l-245 -329l268 -365h-68l-233 326l-240 -326h-63z" />
<glyph unicode="y" horiz-adv-x="588" d="M-8 694h59l254 -631l234 631h55l-311 -817q-16 -41 -33 -66t-41 -38t-59 -17t-87 -4v43q42 0 70.5 5t49 18.5t35 37.5t28.5 62l30 86z" />
<glyph unicode="z" horiz-adv-x="563" d="M12 0v49l457 600h-420v45h483v-49l-460 -600h479v-45h-539z" />
<glyph unicode="{" horiz-adv-x="410" d="M88 410q48 20 74 85t26 171v184q0 21 5 52t19.5 59.5t39.5 48.5t65 20h58v-43h-37q-53 0 -75.5 -39.5t-22.5 -113.5v-176q0 -43 -4 -77t-14.5 -63t-29 -55.5t-47.5 -54.5q45 -32 70 -90.5t25 -130.5v-191q0 -91 24 -127.5t78 -36.5h33v-43h-39q-40 0 -68 13.5t-46 39 t-26 61.5t-8 81v192q0 85 -26.5 148.5t-73.5 85.5z" />
<glyph unicode="|" horiz-adv-x="301" d="M125 -23v1010h51v-1010h-51z" />
<glyph unicode="}" horiz-adv-x="410" d="M33 -168h33q54 0 78 36.5t24 127.5v191q0 72 24.5 130.5t69.5 90.5q-29 28 -47.5 54.5t-29 55.5t-14 63t-3.5 77v176q0 74 -23 113.5t-75 39.5h-37v43h57q40 0 65 -20t39.5 -48.5t19.5 -59.5t5 -52v-184q0 -106 26 -171t74 -85q-46 -22 -73 -85.5t-27 -148.5v-192 q0 -45 -8 -81t-25.5 -61.5t-45.5 -39t-68 -13.5h-39v43z" />
<glyph unicode="~" horiz-adv-x="811" d="M98 301q35 63 79 87t95 24q41 0 76 -14.5t69 -32t68.5 -32t75.5 -14.5q15 0 32 10.5t32.5 26.5t28.5 33.5t22 32.5l37 -41q-12 -16 -27.5 -35.5t-35 -37t-43 -29t-50.5 -11.5q-40 0 -82 14.5t-80 31.5t-70.5 31.5t-52.5 14.5q-31 0 -53 -10.5t-38 -26t-26.5 -33 t-17.5 -30.5z" />
<glyph unicode="&#xa4;" horiz-adv-x="840" d="M8 164l148 145q-62 83 -62 193q0 114 62 188l-148 150l76 71l145 -145q80 59 193 59q55 0 105.5 -16t82.5 -43l150 145l71 -71l-145 -150q59 -80 59 -188q0 -113 -59 -193l145 -145l-71 -76l-150 148q-15 -13 -36 -23.5t-47 -20.5q-53 -18 -105 -18q-110 0 -193 62 l-145 -148zM197 502q0 -94 63 -164q65 -68 162 -68q92 0 158 68q63 63 63 164q0 46 -16.5 87t-45.5 72t-70 49.5t-89 18.5q-96 0 -160 -67q-65 -74 -65 -160z" />
<glyph unicode="&#xa9;" horiz-adv-x="1135" d="M61 483q0 105 39.5 197.5t108 161.5t160.5 109t196 40q105 0 196.5 -40t160 -109t108 -161.5t39.5 -197.5t-39.5 -198t-108 -162t-160 -109.5t-196.5 -40.5q-104 0 -196 40.5t-160.5 109.5t-108 162t-39.5 198zM109 483q0 -96 36 -180.5t97.5 -147t144.5 -99t178 -36.5 t178.5 36.5t146 99t98.5 147t36 180.5t-36 180.5t-98.5 147t-146 99t-178.5 36.5t-178 -36.5t-144.5 -99t-97.5 -147t-36 -180.5zM276 479q0 65 19 123.5t56.5 102.5t93.5 70t130 26q55 0 101 -16t80.5 -44.5t55.5 -66.5t24 -82h-50q-10 37 -27 67.5t-42.5 52.5t-60 34 t-78.5 12q-62 0 -108.5 -22t-78 -59.5t-47.5 -87t-16 -104.5q0 -54 17 -104t48.5 -88.5t77.5 -61t104 -22.5q88 0 139.5 46t69.5 124h50q-7 -48 -27.5 -88t-53.5 -68.5t-78 -44.5t-102 -16q-68 0 -122.5 25.5t-93.5 69t-60 101t-21 121.5z" />
<glyph unicode="&#xab;" horiz-adv-x="514" d="M57 365l295 364l13 -41l-218 -323l218 -322l-13 -41zM262 365l158 286l14 -35l-94 -251l94 -250l-14 -37z" />
<glyph unicode="&#xac;" d="M61 297v90h616v-268h-82v178h-534z" />
<glyph unicode="&#xad;" d="M61 315v52h625v-52h-625z" />
<glyph unicode="&#xae;" horiz-adv-x="1135" d="M61 483q0 105 39.5 197.5t108 161.5t160.5 109t196 40q105 0 196.5 -40t160 -109t108 -161.5t39.5 -197.5t-39.5 -198t-108 -162t-160 -109.5t-196.5 -40.5q-104 0 -196 40.5t-160.5 109.5t-108 162t-39.5 198zM109 483q0 -96 36 -180.5t97.5 -147t144.5 -99t178 -36.5 t178.5 36.5t146 99t98.5 147t36 180.5t-36 180.5t-98.5 147t-146 99t-178.5 36.5t-178 -36.5t-144.5 -99t-97.5 -147t-36 -180.5zM383 184v596h227q41 0 76 -9.5t61 -28.5t41 -48t15 -67q0 -79 -44 -121t-110 -45l178 -277h-57l-180 275h-156v-275h-51zM434 504h107 q34 0 71.5 2t68.5 12.5t51 32.5t20 63q0 39 -14 63t-37 37.5t-52 18t-59 4.5h-156v-233z" />
<glyph unicode="&#xb0;" horiz-adv-x="541" d="M66 713q0 40 15.5 77t42.5 64.5t63.5 44t78.5 16.5q43 0 80.5 -16t65 -43t43.5 -64t16 -79t-16 -79t-43.5 -64.5t-65 -43.5t-80.5 -16q-41 0 -77 15.5t-63.5 43t-43.5 64.5t-16 80zM121 713q0 -30 11.5 -57t31 -47t46 -32t56.5 -12q62 0 105 43q45 46 45 105 q0 30 -12 56.5t-32.5 46t-47.5 31t-58 11.5t-57.5 -11t-46 -30.5t-30.5 -46t-11 -57.5z" />
<glyph unicode="&#xb6;" horiz-adv-x="727" d="M0 858q0 153 94 229q90 66 248 66h389v-41h-102v-1356h-62v1356h-145v-1356h-55v805q-168 0 -263 62q-104 74 -104 235z" />
<glyph unicode="&#xb7;" horiz-adv-x="338" d="M96 449q0 30 20.5 50.5t53.5 20.5q31 0 51.5 -21.5t20.5 -49.5q0 -31 -21.5 -52.5t-50.5 -21.5q-33 0 -53.5 20.5t-20.5 53.5z" />
<glyph unicode="&#xbb;" horiz-adv-x="514" d="M82 115l94 250l-94 251l14 35l158 -286l-158 -287zM152 43l217 322l-217 323l12 41l295 -364l-295 -363z" />
<glyph unicode="&#xd7;" d="M76 80l260 262l-258 258l35 37l260 -260l260 262l37 -37l-260 -260l262 -262l-37 -37l-262 262l-260 -260z" />
<glyph unicode="&#xf7;" d="M61 315v52h625v-52h-625zM311 102q0 25 18.5 43.5t43.5 18.5t43 -18.5t18 -43.5q0 -23 -18 -42t-43 -19q-12 0 -23 5.5t-19.5 14t-14 19.5t-5.5 22zM311 600q0 25 18.5 43.5t43.5 18.5t43 -18.5t18 -43.5q0 -23 -18 -42t-43 -19q-12 0 -23 5t-19.5 13.5t-14 19.5t-5.5 23 z" />
<glyph unicode="&#x2000;" horiz-adv-x="682" />
<glyph unicode="&#x2001;" horiz-adv-x="1365" />
<glyph unicode="&#x2002;" horiz-adv-x="682" />
<glyph unicode="&#x2003;" horiz-adv-x="1365" />
<glyph unicode="&#x2004;" horiz-adv-x="455" />
<glyph unicode="&#x2005;" horiz-adv-x="341" />
<glyph unicode="&#x2006;" horiz-adv-x="227" />
<glyph unicode="&#x2007;" horiz-adv-x="227" />
<glyph unicode="&#x2008;" horiz-adv-x="170" />
<glyph unicode="&#x2009;" horiz-adv-x="273" />
<glyph unicode="&#x200a;" horiz-adv-x="75" />
<glyph unicode="&#x2010;" horiz-adv-x="475" d="M94 342v51h289v-51h-289z" />
<glyph unicode="&#x2011;" horiz-adv-x="475" d="M94 342v51h289v-51h-289z" />
<glyph unicode="&#x2012;" horiz-adv-x="475" d="M94 342v51h289v-51h-289z" />
<glyph unicode="&#x2013;" d="M61 315v52h625v-52h-625z" />
<glyph unicode="&#x2014;" horiz-adv-x="1495" d="M61 315v52h1373v-52h-1373z" />
<glyph unicode="&#x2018;" horiz-adv-x="322" d="M82 846q0 21 6.5 45.5t20 49.5t35 48t51.5 41l32 -22q-18 -12 -34.5 -28.5t-29.5 -34.5t-21 -35.5t-9 -30.5q17 8 23.5 8h17.5q25 0 45.5 -19t20.5 -47q0 -29 -21.5 -50t-50.5 -21q-42 0 -64 27t-22 69z" />
<glyph unicode="&#x2019;" horiz-adv-x="322" d="M82 958q0 29 21.5 50.5t50.5 21.5q42 0 64 -27t22 -69q0 -21 -6.5 -45.5t-20 -49.5t-35 -48t-51.5 -41l-33 22q18 12 34.5 28.5t29.5 34.5t20.5 35.5t9.5 30.5q-8 -4 -13.5 -5.5t-9.5 -2t-8 -0.5h-10q-24 0 -44.5 19t-20.5 46z" />
<glyph unicode="&#x201c;" horiz-adv-x="549" d="M82 846q0 21 6.5 45.5t20 49.5t35 48t51.5 41l32 -22q-18 -12 -34.5 -28.5t-29.5 -34.5t-21 -35.5t-9 -30.5q17 8 23.5 8h17.5q25 0 45.5 -19t20.5 -47q0 -29 -21.5 -50t-50.5 -21q-42 0 -64 27t-22 69zM309 846q0 21 6.5 45.5t20 49.5t35 48t51.5 41l33 -22 q-18 -12 -34.5 -28.5t-29.5 -34.5t-21 -35.5t-10 -30.5q17 8 23.5 8h17.5q25 0 45.5 -19t20.5 -47q0 -29 -21.5 -50t-50.5 -21q-42 0 -64 27t-22 69z" />
<glyph unicode="&#x201d;" horiz-adv-x="549" d="M82 958q0 29 21.5 50.5t50.5 21.5q42 0 64 -27t22 -69q0 -21 -6.5 -45.5t-20 -49.5t-35 -48t-51.5 -41l-33 22q18 12 34.5 28.5t29.5 34.5t20.5 35.5t9.5 30.5q-8 -4 -13.5 -5.5t-9.5 -2t-8 -0.5h-10q-24 0 -44.5 19t-20.5 46zM309 958q0 29 21.5 50.5t50.5 21.5 q42 0 64 -27t22 -69q0 -21 -6.5 -45.5t-20 -49.5t-35 -48t-51.5 -41l-32 22q18 12 34.5 28.5t29.5 34.5t20.5 35.5t9.5 30.5q-17 -8 -23.5 -8h-17.5q-25 0 -45.5 19t-20.5 46z" />
<glyph unicode="&#x2022;" horiz-adv-x="737" d="M61 410q0 64 24 120t66 97.5t98 65.5t120 24t120 -24t97.5 -65.5t65.5 -97.5t24 -120t-24 -120t-65.5 -98t-97.5 -66t-120 -24t-120 24t-98 66t-66 98t-24 120z" />
<glyph unicode="&#x2026;" horiz-adv-x="866" d="M82 51q0 26 17.5 45t43.5 19t45 -19t19 -45t-19 -43.5t-45 -17.5t-43.5 17.5t-17.5 43.5zM371 51q0 26 17.5 45t43.5 19t45 -19t19 -45t-19 -43.5t-45 -17.5t-43.5 17.5t-17.5 43.5zM659 51q0 26 18 45t44 19t44.5 -19t18.5 -45t-18.5 -43.5t-44.5 -17.5t-44 17.5 t-18 43.5z" />
<glyph unicode="&#x202f;" horiz-adv-x="273" />
<glyph unicode="&#x205f;" horiz-adv-x="341" />
<glyph unicode="&#x25fc;" horiz-adv-x="695" d="M0 0v695h695v-695h-695z" />
</font>
</defs>
</svg>
